<?xml version="1.0" encoding="utf-8"?>
<!-- Generator: Adobe Illustrator 16.0.0, SVG Export Plug-In . SVG Version: 6.00 Build 0)  -->
<!DOCTYPE svg PUBLIC "-//W3C//DTD SVG 1.1//EN" "http://www.w3.org/Graphics/SVG/1.1/DTD/svg11.dtd">
<svg version="1.1" id="Layer_1" xmlns="http://www.w3.org/2000/svg" xmlns:xlink="http://www.w3.org/1999/xlink" x="0px" y="0px"
	 width="82px" height="66.52px" viewBox="0 0 82 66.52" enable-background="new 0 0 82 66.52" xml:space="preserve">
<path fill="#C3C3C3" d="M44.907,39.457c0,0-3.581,0.072-5.658-0.223c0,0-0.217,0.882-1.163,2.114c0,0-0.652,0.674,0.463,0.704
	c0,0,4.325,0.382,5.279-0.792C43.828,41.261,44.475,40.572,44.907,39.457z"/>
<path fill="#C3C3C3" d="M38.84,39.179c0,0-3.78-0.603-5.322-1.25c0,0-1.393,1.747-1.979,2.495c0,0-0.866,0.91,0.572,1.013
	c0,0,3.344,0.294,3.974,0.322c0,0,0.953,0.118,1.452-0.439C37.537,41.32,38.543,40.266,38.84,39.179z"/>
<path fill="#C3C3C3" d="M33.12,37.791c0,0-3.253-1.229-4.461-2.045c0,0-2.449,1.951-6.34,1.755c0,0-1.095-0.299-1.036,0.428
	c0,0,0.528,1.841,7.215,2.722c0,0,1.604,0.449,2.366-0.196C30.863,40.454,32.247,39.215,33.12,37.791z"/>
<path fill="#C3C3C3" d="M28.215,35.485c0,0-1.751-1.015-3.133-2.291c0,0-3.351,0.299-7.985-1.597c0,0-1.251-0.704-1.251,0.117
	c0,0,0.41,2.796,3.226,4.635c0,0,0.899,0.78,2.054,0.704C21.126,37.052,25.02,37.653,28.215,35.485z"/>
<path fill="#C3C3C3" d="M24.615,32.722c0,0-2.278-2.71-2.909-4.456c0,0-8.422-2.282-9.585-12.656c0,0,0.087-1.173-0.851-1.261
	c0,0-1.173-0.029-1.438,2.669C9.833,17.019,8.219,32.343,24.615,32.722z"/>
<path fill="#C3C3C3" d="M13.014,9.168c0.356-1.716,1.303-2.837,3.83-4.185c3.324-1.604,4.626-0.927,4.626-0.927
	c0.918,0.379-0.138,1.171-0.138,1.171c-3.712,3.255-4.136,8.358-4.136,8.358c-0.469,7.391,4.024,9.96,4.024,9.96
	c-0.269,1.146,0.25,4.08,0.25,4.08c-2.336-0.471-5.682-4.105-5.682-4.105S11.055,18.593,13.014,9.168z"/>
<path fill="#C3C3C3" d="M24.162,19.417c0,0-2.131,0.597-2.826,3.699c0,0-8.853-7.671,0.767-17.878
	c1.591-1.688,4.186-2.108,6.297-1.8c1.203,0.176,2.793,0.71,3.867,1.319c1.485,0.842,0.466,1.708-0.758,2.26
	C31.508,7.017,20.128,11.71,24.162,19.417z"/>
<path fill="#C3C3C3" d="M51.278,34.529c0,0-2.288,0.021-3.696-0.147c0,0-0.645,1.829-1.545,3.746c0,0-0.567,0.775,0.157,0.544
	C46.194,38.671,50.848,37.833,51.278,34.529z"/>
<path fill="#C3C3C3" d="M47.087,34.35c0,0-2.643-0.144-4.123-0.344c0,0-0.866,2.4-1.85,4.116c0,0-0.476,0.801,0.499,0.83
	c0,0,1.525,0.064,2.024,0.064c0,0,1.27,0.103,1.804-0.732C45.441,38.284,46.269,37.236,47.087,34.35z"/>
<path fill="#C3C3C3" d="M42.479,33.958c0,0-3.241-0.28-4.109-0.463c0,0-0.907,1.943-2.124,3.85c0,0-0.543,0.699,0.103,0.929
	c0,0,2.426,0.449,2.907,0.392c0,0,0.949,0.126,1.419-0.736C40.675,37.929,41.95,35.939,42.479,33.958z"/>
<path fill="#C3C3C3" d="M37.923,33.433c0,0-2.792-0.37-4.05-1.06c0,0-0.868,1.643-2.98,2.875c0,0-0.953,0.44,0,0.968
	c0,0,2.221,1.246,3.303,1.393c0,0,1.273,0.366,2.065-1.085C36.261,36.524,37.312,34.829,37.923,33.433z"/>
<path fill="#C3C3C3" d="M33.476,32.207c0,0-2.279-1.042-2.933-1.904c0,0-1.988,0.784-5.782,0.091c0,0-1.406-0.233-0.823,0.56
	c0,0,2.232,2.989,4.364,3.849c0,0,0.938,0.919,2.875-0.274C31.177,34.529,32.702,33.452,33.476,32.207z"/>
<path fill="#C3C3C3" d="M30.071,29.808c-2.354-3.234-1.526-6.451-1.525-6.454c-0.03,0.08-0.93-0.393-0.981-0.426
	c-0.773-0.51-1.174-1.253-1.621-2.034c-0.413-0.722-1.099-1.094-1.916-0.751c0,0-2.551,1.305-2.185,5.147
	c0,0-0.037,3.461,2.361,4.518C24.206,29.808,30.651,30.604,30.071,29.808z"/>
<path fill="#C3C3C3" d="M66.413,33.268c-0.814-3.632-3.813-6.277-3.813-6.277c-1.188-1.056-2.493-0.879-2.493-0.879
	c-2.669,0.323-4.683,0.459-4.683,0.459c-3.521,0.254-9.777-0.136-9.777-0.136c-0.865-0.096-1.311,0.175-1.311,0.175
	c-0.684,0.404-1.857,0.235-1.857,0.235c-6.433-0.469-9.359-1.378-9.359-1.378c-2.437-0.674-2.681-1.75-2.681-1.75
	c-0.424-0.782-1.081-0.6-1.081-0.6s-1.516,0.42,1.081,2.204c0,0,1.656,1.329,9.722,2.053c0.921,0.083,1.84,0.223,2.754,0.342
	c2.612,0.341,5.22,0.709,7.827,1.071c2.099,0.291,4.222,0.521,6.309,0.876c0.328,0.056,0.684,0.104,0.984,0.25
	c0.414,0.2,0.72,0.57,1.14,0.762c0.475,0.217,1.005,0.267,1.502,0.409c1.198,0.341,2.488,0.881,3.505,1.61
	C64.182,32.692,66.729,34.678,66.413,33.268z"/>
<path fill="#C3C3C3" d="M52.275,29.35c0,0-0.674-0.081-1.348-0.165c0,0-0.083,0.677,0.578,0.734
	C51.506,29.919,52.158,29.998,52.275,29.35z"/>
<path fill="#C3C3C3" d="M50.275,29.104c0,0-0.844-0.105-1.267-0.16c0,0-0.144,0.701,0.517,0.742
	C49.525,29.686,50.079,29.795,50.275,29.104z"/>
<path fill="#C3C3C3" d="M48.312,28.856c0,0-0.95-0.123-1.426-0.185c0,0-0.082,0.628,0.6,0.765
	C47.486,29.436,48.149,29.583,48.312,28.856z"/>
<path fill="#C3C3C3" d="M46.226,28.585c0,0-1.083-0.142-1.625-0.213c0,0-0.12,0.614,0.664,0.812
	C45.265,29.185,46.05,29.342,46.226,28.585z"/>
<path fill="#C3C3C3" d="M44.002,28.295c0,0-0.956-0.118-1.436-0.173c0,0-0.095,0.548,0.595,0.68
	C43.161,28.802,43.857,28.912,44.002,28.295z"/>
<path fill="#C3C3C3" d="M41.882,28.044c0,0-0.926-0.105-1.39-0.159c0,0-0.032,0.565,0.585,0.675
	C41.077,28.561,41.665,28.671,41.882,28.044z"/>
<path fill="#C3C3C3" d="M39.837,27.809c0,0-0.745-0.09-1.116-0.138c0,0-0.078,0.464,0.451,0.574
	C39.172,28.245,39.7,28.372,39.837,27.809z"/>
<path fill="#C3C3C3" d="M38.248,27.61c0,0-0.259-0.036-0.389-0.053c-0.211-0.029-0.595-0.059-0.806-0.09
	c0,0-0.066,0.434,0.447,0.578C37.5,28.044,38.079,28.122,38.248,27.61z"/>
<path fill="#C3C3C3" d="M36.727,27.392c0,0-0.845-0.132-1.267-0.206c0,0-0.073,0.532,0.485,0.656
	C35.945,27.842,36.511,27.948,36.727,27.392z"/>
<path fill="#C3C3C3" d="M35.004,27.104c0,0-0.784-0.151-1.173-0.237c0,0-0.012,0.518,0.42,0.6
	C34.251,27.467,34.752,27.591,35.004,27.104z"/>
<path fill="#C3C3C3" d="M56.842,30.051l-1.676-0.266c0,0-0.134,0.786,0.6,0.94C55.766,30.725,56.574,30.941,56.842,30.051z"/>
<path fill="#C3C3C3" d="M54.536,29.686l-1.576-0.25c0,0-0.164,0.73,0.621,0.906C53.581,30.342,54.299,30.489,54.536,29.686z"/>
<path fill="#C3C3C3" d="M38.702,27.671"/>
<path fill="#C3C3C3" d="M32.55,26.655c0,0-1.466-0.207-2.815-1.306c0,0-0.782-0.86-0.816-0.217c0,0,0.115,1.431,0.634,2.54
	c0,0,0.154,0.556,0.886,0.451c0,0,1.208-0.12,2.522-0.642c0,0,0.659-0.226,0.393-0.451C33.354,27.03,33.107,26.784,32.55,26.655z"/>
<path fill="#C3C3C3" d="M30.406,29.093c0,0,0.673,0.854,1.209,1.252c0,0,0.539,0.518,1.287-0.042c0,0,2.403-1.56,3.13-2.076
	c0,0-0.705,0.042-0.945-0.556c0,0-0.669,0.464-1.511,0c0,0-1.658,0.556-2.669,0.794C30.907,28.466,29.94,28.568,30.406,29.093z"/>
<path fill="#C3C3C3" d="M38.13,28.253c-0.893,0.381-1.282-0.206-1.282-0.206s-2.274,1.561-3.728,2.516c0,0-0.819,0.417-0.072,0.751
	c0,0,0.944,0.473,1.148,0.557c0,0,0.657,0.428,1.4-0.393c0,0,2.116-1.882,2.759-2.896C38.354,28.583,38.798,27.968,38.13,28.253z"/>
<path fill="#C3C3C3" d="M38.988,28.466c0,0-1.583,1.943-2.896,3.072c0,0-0.784,0.572,0.202,1.026l0.434,0.104
	c0,0,1.074,0.322,1.772-0.684c0,0,1.105-1.324,2.059-3.313c0,0-0.337-0.159-0.455-0.413C40.103,28.258,39.668,28.741,38.988,28.466z
	"/>
<path fill="#C3C3C3" d="M40.895,28.944c0,0-0.937,1.991-1.979,3.297c0,0-0.804,0.885,0.632,0.869c0,0,1.157,0.1,1.847-0.208
	c0,0,0.578-0.133,1.169-1.1c0,0,0.991-1.842,1.479-2.858c0,0-0.962,0.864-1.916-0.376C42.126,28.568,41.657,29.094,40.895,28.944z"
	/>
<path fill="#C3C3C3" d="M44.414,29.06c0,0-1.188,2.258-1.789,3.417c0,0-0.34,0.939,0.522,1.019c0,0,0.607,0.058,0.895,0.083
	c0,0,0.865,0.076,1.179-0.736c0,0,0.689-1.374,1.525-3.407c0,0-0.161-0.195-0.264-0.492C46.482,28.944,45.5,30.233,44.414,29.06z"/>
<path fill="#C3C3C3" d="M47.087,29.632c0,0-0.985,2.082-1.573,3.402c0,0-0.434,0.648,0.786,0.73c0,0,0.551,0.042,1.077,0.073
	c0,0,0.811,0.046,1.175-0.862c0,0,0.981-2.097,1.187-2.918c0,0-0.969,0.029-1.187-0.739C48.552,29.318,47.922,30.081,47.087,29.632z
	"/>
<path fill="#C3C3C3" d="M53.741,30.749c0,0-0.302,0.815-0.913,2.375c0,0-0.279,0.831-1.257,0.838c0,0-1.161,0.011-1.833-0.014
	c0,0-1.09,0.053-0.742-0.964c0,0,0.737-2.209,1.558-3.432c0,0,0.665,1.473,1.917,0.232C52.471,29.785,52.508,30.723,53.741,30.749z"
	/>
<path fill="#C3C3C3" d="M53.012,33.728c-0.335,1.097,1.61,0.653,1.61,0.653c2.092-0.543,3.051-2.492,3.051-2.492
	c0.791-1.247,0.233-1.537,0.233-1.537c-0.19-0.158-0.571-0.193-0.571-0.193c-0.221,0.923-1.086,1.026-1.086,1.026
	c-1.349,0.176-1.51-0.918-1.51-0.918s-0.02,0.318-0.587,0.481C54.152,30.749,53.46,32.26,53.012,33.728z"/>
<path fill="#C3C3C3" d="M31.714,48.726c0,0,0.499-0.796,1.995-1.057c0,0,2.845-0.586,4.917-1.036
	c5.461-1.185,6.453,2.973,6.453,2.973c0.822,2.463-0.43,2.816-0.43,2.816c-1.643,0.977-2.034,2.894-2.034,2.894
	c-1.759,5.084-6.961,4.145-6.961,4.145c-5.319-0.352-8.135,2.112-8.135,2.112c-1.525,1.291-2.463,1.722-2.463,1.722
	c-2.66,0.938-2.074-2.66-2.074-2.66s0.519-3.197,2.279-6.336c0,0,0.352-1.173,2.581-2.053
	C27.842,52.245,29.397,51.777,31.714,48.726z"/>
<path fill="#C3C3C3" d="M45.178,40.014c-0.332,0.805-0.693,1.49-1.439,2.003c-1.187,0.813-2.762,0.597-4.123,0.553
	c-1.611-0.051-3.222-0.166-4.818-0.382c0,0-1.03-0.296-1.678,0.35c0,0-1.268,1.114-1.075,1.554c0.174,0.399,0.449,0.712,0.558,1.154
	c0.161,0.649-0.116,1.062-0.302,1.659c-0.222,0.719,2.58,0.008,2.816-0.039c1.872-0.367,3.732-0.854,5.648-0.907
	c1.144-0.033,2.123,0.116,3.055,0.791c0.928,0.67,1.513,1.757,1.826,2.837c0,0,0.216,0.684,0.195,1.643c0,0-0.273,1.036,1.231,0.234
	c0,0,2.327-1.109,6.082-1.439c0,0,0.86,0.031,0.439-0.653c0,0-0.733-1.524-0.997-2.815c0,0-0.146-0.626-0.762-0.726
	c0,0-2.377-0.477-1.302-2.579c0,0,0.9-1.505-0.41-2.386c0,0-0.879-0.527-0.646-2.366c0,0,0.095-0.636-0.395-0.48
	c0,0-1.268,0.808-2.89,1.126C46.194,39.144,45.481,39.276,45.178,40.014z"/>
<path fill="#C3C3C3" d="M36.848,60.019c0,0-5.075-0.617-8.331,1.437c0,0-0.997,0.645-0.293,1.349c0,0,0.851,0.91,3.989,0
	c0,0,1.701-0.557,3.314,0.404c0,0,2.464,1.327,5.631-0.433c0,0,1.907-1.027,3.08-2.582c0,0-4.106,2.162-6.716,1.609
	c0,0-1.232-0.143-0.382-0.934C37.14,60.869,38.344,60.053,36.848,60.019z"/>
<path fill="#C3C3C3" d="M25.408,63.688c0,0-0.617,0.671,0.292,0.994c0,0,1.614,1.261,8.711,0.352c0,0,3.461-0.615,6.277,0.059
	c0,0,3.432,0.528,4.458-1.085c0,0,0.44-0.558-0.41-1.085c0,0-0.88-0.294-1.467-0.91c0.058,0.061-1.281,0.974-1.346,1.012
	c-1.072,0.641-2.289,1.146-3.553,1.168c-0.435,0.008-0.868-0.04-1.295-0.12c-0.651-0.121-1.21-0.298-1.824-0.529
	c-0.638-0.241-1.329-0.351-2.01-0.342c-0.501,0.006-0.991,0.105-1.47,0.249c-0.986,0.295-2.193,0.472-3.195,0.161
	c-0.421-0.131-0.673-0.475-0.868-0.846c-0.184-0.35-0.384-0.557-0.761-0.283C26.948,62.482,26.01,63.163,25.408,63.688z"/>
<path fill="#C3C3C3" d="M43.808,61.573c0,0,1.37-3.188,4.322-1.896c0,0,0.626,0.449,1.7,0.449c0,0,2.133-0.176,2.034,2.777
	c0,0-1.231-1.33-3.012-0.196c0,0-1.417-0.293-3.06,0.743c0,0-0.146-0.615-0.886-0.968C44.907,62.482,44.05,62.185,43.808,61.573z"/>
<path fill="#C3C3C3" d="M50.501,65.225c0,0,1.672-0.045,1.188-1.731c0,0-0.284-0.953-0.55-0.059c0,0-0.173,1.13-0.79,1.452
	C50.349,64.887,49.797,65.209,50.501,65.225z"/>
<path fill="#C3C3C3" d="M49.312,63.196c0,0-0.044-0.436,0.557-0.406c0,0,0.822-0.102,0.748,0.406c0,0,0.015,1.589-1.436,1.896
	c0,0-0.983,0.279-0.661-0.146c0.196-0.259,0.441-0.485,0.595-0.775C49.271,63.873,49.303,63.526,49.312,63.196z"/>
<path fill="#C3C3C3" d="M46.747,63.922c-0.002,0.042-0.002,0.086-0.003,0.127c-0.008,0.468-0.125,0.945-0.452,1.292
	c0,0-0.455,0.51,0.131,0.543c0,0,1.746-0.059,2.083-2.199c0,0,0.205-0.771-0.425-0.646c-0.376,0.074-0.907,0.114-1.187,0.409
	C46.774,63.577,46.753,63.752,46.747,63.922z"/>
<path fill="#C3C3C3" d="M45.559,65.364c0,0,0.636-0.447,0.762-1.269c0,0,0.118-0.386-0.342-0.479c0,0-0.283-0.088-0.489,0.313
	c0,0-0.283,0.802-1.682,1.296c0,0-0.644,0.171-0.233,0.308c0,0,0.72,0.156,1.333,0.107C44.907,65.64,45.281,65.623,45.559,65.364z"
	/>
<path fill="#C3C3C3" d="M50.56,36.817c0,0-1.599,2.683,0,3.856c0,0,1.206,1.031,0.454,2.377c0,0-1.275,1.98,1.188,2.522
	c0,0,0.733,0.229,0.762-0.691c0,0-0.087-4.104,3.887-5.776c0,0,1.086-0.279,1.657,0.411c0,0,1.32,0.997,2.435-1.07
	c0,0,1.272-2.527-1.026-3.784c0,0-1.306-0.909-2.889,1.173c0,0-0.411,0.484-0.689-0.029c0,0-0.331-0.565,0.072-1.657
	c0,0-0.659,0.029-1.48,0.499c0,0-0.601,0.396-1.335,0.103C53.595,34.749,52.144,33.84,50.56,36.817z"/>
<g>
	<path fill="#C3C3C3" d="M22.944,58.287c0,0,0.499-5.411,1.643-7.665c1.016-2.001,2.19-4.028,3.677-5.71
		c1.151-1.299,2.302-1.999,3.687-2.937c0,0,1.642,0.019,0.747,0.312c0,0-0.778,0.646-1.012,1.129
		c-0.392,0.808,0.057,1.071,0.293,1.788c0.252,0.767-0.202,1.768-0.524,2.478c-0.474,1.043-1.147,1.977-1.954,2.789
		c0,0-1.041,0.982-2.083,1.378c0,0-1.745,0.66-2.449,1.849C24.968,53.698,23.868,55.56,22.944,58.287z"/>
</g>
<g>
	<path fill="#C3C3C3" d="M9.095,40.685c1.877,0.803,2.292,2.058,2.292,2.058c1.408,2.757,0.293,7.39,0.293,7.39
		c-1.232,5.336-0.528,8.155-0.528,8.155c0.939,6.042,6.004,4.977,6.004,4.977c3.715-0.391,5.203-4.977,5.203-4.977
		c0.092-1.609,0.409-3.872,0.409-3.872c-1.075,2.581-2.288,4.42-3.344,5.515c-2.316,2.4-5.28,1.995-6.688-1.29
		c-1.525-3.755,0.353-7.744,0.587-11.498c0.255-4-1.588-7.939-4.323-10.966c0,0-1.309-1.5-3.068-2.146c0,0-0.958-0.557-2.268-0.342
		c0,0-1.399,0.276-2.278-0.967c0,0,0.323,2.335,2.816,2.834c0,0,1.965,0.401,0.674,0.929c0,0-0.851,0.626-2.786-1.046
		c0,0,0.264,2.17,2.669,2.287c0,0,2.903-0.292,3.783,1.584c0,0-1.965-1.085-3.813-0.851C4.729,38.459,8.871,40.59,9.095,40.685z"/>
</g>
<g>
	<path fill="#C3C3C3" d="M54.622,50.661c0.586,1.819,2.786,2.229,4.253,2.991c1.35,0.646,2.087,0.906,3.34,1.644
		c0,0-0.671-0.734-1.61-2.376c-0.439-0.771-0.725-1.5-1.364-2.155c-0.872-0.894-1.922-1.593-2.683-2.597
		c0,0-1.026-1.467-1.231-3.813c0,0,0.176-0.889-0.704-1.104c0,0-0.528-0.294-0.606-0.724c0,0-0.961,1.348-0.782,3.895
		c0,0-0.018,1.207,1.076,3.341L54.622,50.661z"/>
</g>
<path fill="#C3C3C3" d="M63.93,56.822c1.223,0.831,4.653,3.91,4.653,3.91c0.665,0.509-0.646,0.88-0.646,0.88
	c-1.466,0.234-2.698-1.604-2.698-1.604c-0.743-1.075-2.269-0.64-2.269-0.64c-0.859,0.318-1.28-0.699-1.28-0.699
	c-0.41-1.408-2.023-2.64-2.023-2.64c-2.229-1.232-3.168-2.875-3.168-2.875S61.856,55.413,63.93,56.822z"/>
<path fill="#C3C3C3" d="M55.991,40.258c0,0-1.271,0.528-1.604,1.722c0,0-0.118,0.743,0.801,1.036c0,0,0.822,0.392,0.626,1.271
	c0,0-0.117,3.266,2.895,5.358c0,0,1.563,1.096,2.679,3.598c0,0,1.056,2.308,3.206,3.559c0,0,2.191,1.643,3.873,3.363
	c0,0,0.84,1.193,1.896,0.274c0,0,0.606-0.724-0.293-0.685c0,0-1.075,0.352-1.428-1.192c0,0-0.468-2.44-1.308-2.785
	c-1.356-0.559-1.956-2.267-2.677-3.429c-0.55-0.887-1.237-1.648-1.595-2.645c-0.344-0.957-0.632-2.128-0.591-3.148
	c0,0,0.05-1.213-1.69-3.656c0,0-0.293-0.646-1.017-0.606c0,0-0.391,0.138-1.604-0.938C58.161,41.355,56.69,39.827,55.991,40.258z"/>
<path fill="#C3C3C3" d="M63.167,59.696c1.35-0.38,1.857,0.587,1.857,0.587c1.389,2.111,3.148,1.682,3.148,1.682
	c-0.077,0.169-0.146,0.344-0.243,0.503c-0.093,0.155-0.225,0.23-0.337,0.362c-0.162,0.19-0.219,0.481-0.28,0.719
	c-0.215,0.82-1.231,0.724-1.231,0.724c-3.012,0.136-3.866-4.607-3.866-4.607S62.541,59.871,63.167,59.696z"/>
<path fill="#C3C3C3" d="M67.684,63.489c0,0,0.489-0.743,0.899-1.74c0.093-0.224,0.488-0.375,0.665-0.607
	c0,0,1.075,0.334,1.779-1.387c0,0,0.685-1.271,2.269-1.271c0,0,1.232,0,1.838,0.918c0,0,2.326-0.136,2.054,1.937
	c0,0-0.132,0.626,0.021,1.153c0,0,0.135,0.841-0.589,0.763c0,0-0.646-0.215-0.528-0.665c0,0,0.196-0.729-0.391-0.648
	c0,0-0.431-0.035-1.095,0.102c0,0-0.685,0.237-0.548-0.409c0,0,0.234-0.744-0.743-0.451c0,0-1.056,0.325-1.075,0.759
	c-0.017,0.366-0.101,0.8-0.36,1.075c-0.445,0.472-1.249,0.642-1.867,0.735c-0.357,0.054-0.728,0.059-1.087,0.027
	C68.813,63.77,67.663,63.554,67.684,63.489z"/>
<path fill="#C3C3C3" d="M74.215,64.276c0.402-0.166,0.827-0.377,1.13-0.697c0.198-0.207,0.476-0.721,0.39-1.029
	c-0.04-0.146-0.295-0.243-0.435-0.243c-0.219-0.024-0.505-0.023-0.711,0.06c-0.563,0.227,0.044,1.025-0.374,1.349
	c0,0-0.323,0.249-0.293,0.396C73.922,64.11,73.92,64.396,74.215,64.276z"/>
<path fill="#C3C3C3" d="M73.717,62.042c0,0,0.08,1.129-1.265,1.643c0,0-0.628,0.293-0.393-0.161
	c0.083-0.161,0.208-0.302,0.291-0.466c0.082-0.164,0.147-0.337,0.193-0.514c0.04-0.151-0.009-0.4,0.051-0.532
	c0.094-0.207,0.541-0.287,0.738-0.336C73.646,61.599,73.697,61.77,73.717,62.042z"/>
<path fill="#C3C3C3" d="M75.593,64.124c0.171,0.02,0.378-0.068,0.513-0.162c0.131-0.094,0.285-0.226,0.295-0.397
	c0.009-0.146-0.134-0.275-0.266-0.307c-0.234-0.054-0.253,0.12-0.336,0.286C75.708,63.73,75.006,64.059,75.593,64.124z"/>
<path fill="#C3C3C3" d="M59.004,30.912c-0.085-0.009-0.17-0.008-0.251,0.008c-0.401,0.078-0.48,0.478-0.62,0.809
	c-0.249,0.594-0.662,1.152-1.107,1.616c-0.101,0.151-0.184,0.494-0.184,0.494c-0.268,1.109-0.258,1.375-0.258,1.375
	c-0.071,0.783,0.428,0.107,0.428,0.107c1.085-1.261,2.088-1.29,2.088-1.29c2.664,0,2.542,3.021,2.542,3.021
	c-0.078,1.955-1.447,2.718-1.447,2.718c-1.232,0.724-1.662,0.196-1.662,0.196c-0.84-0.842-1.524-0.606-1.524-0.606
	c-0.952,0.216,0,0.646,0,0.646c0.997,0.918,1.544,1.251,1.544,1.251c0.665,0.625,1.33,0.645,1.33,0.645
	c1.112,0.055,1.252,0.9,1.252,0.9c0,0.41,0.332,0.273,0.332,0.273c5.3-3.172,4.948-7.999,4.947-8.018
	c-0.078-1.047-1.114-1.188-1.882-1.576c-0.892-0.451-1.69-1.059-2.572-1.528c-0.704-0.374-1.443-0.647-2.215-0.844
	C59.518,31.051,59.255,30.939,59.004,30.912z"/>
<path fill="#C3C3C3" d="M46.566,5.433c0,0-0.138,0.665,0,1.232c0,0-1.116-0.313-2.641,0.312c0,0-1.584,0.86-1.858-0.41
	c0,0-0.352-2.17,2.66-2.19c0,0,0.548,0.097,0.078,0.41c-0.196,0.131-0.485,0.274-0.535,0.535c-0.09,0.479,0.636,0.34,0.867,0.229
	C45.138,5.551,46.292,5.179,46.566,5.433z"/>
<path fill="#C3C3C3" d="M46.722,7.467c0,0-0.762-0.724-2.757,0.137c0,0-1.159,0.45-1.909,0.606c0,0-0.965,0.263-1.005-0.514
	c0,0-0.098-1.227-1.212,0.021c0,0-1.193,1.45-0.116,2.585c0,0,0.84,1.153,3.088-0.274c0,0,1.976-1.079,3.08-0.42
	c0,0,0.675-0.832,1.809-0.753C47.699,8.855,46.879,8.268,46.722,7.467z"/>
<path fill="#C3C3C3" d="M45.549,10.038c0,0-0.453,0.62-0.746,1.999c0,0-2.471-0.84-4.598,0.876
	c-0.602,0.486-1.388,0.902-2.194,0.671c-0.225-0.065-0.461-0.23-0.603-0.419c-0.487-0.647-0.054-1.514,0.333-2.085
	c0.312-0.459,0.912-0.75,1.442-0.531c0.254,0.105,0.458,0.329,0.706,0.427c0.497,0.196,1.04,0.195,1.557,0.09
	c0.549-0.111,0.99-0.382,1.487-0.616C42.934,10.448,45.094,9.481,45.549,10.038z"/>
<path fill="#C3C3C3" d="M44.663,12.502c0,0-0.194,0.669-0.228,1.649c0,0-1.902-0.402-5.163,2.12c0,0-1.824,1.54-3.07-0.367
	c0,0-0.823-1.525,0.989-2.083c0,0,0.682-0.234,1.093,0.425c0,0,0.557,0.836,2.055-0.598C40.339,13.649,42.067,11.446,44.663,12.502z
	"/>
<path fill="#C3C3C3" d="M44.259,14.792c0,0-1.651-0.227-5.355,2.516c0,0-0.952,0.928-1.811,0.519c0,0-0.859-0.627-1.244,0.477
	c0,0-0.368,0.969,0.363,2.019c0,0,0.542,0.859,1.584,0.587c0,0,0.83-0.246,1.955-1.992c0,0,1.583-2.533,4.583-3.269
	C44.334,15.648,44.259,15.427,44.259,14.792z"/>
<path fill="#C3C3C3" d="M44.423,16.154c0,0,0.052,0.7,0.188,1.224c0,0-1.268-0.036-2.191,2.53c-0.196,0.547-0.352,1.115-0.642,1.623
	c-0.287,0.503-0.568,1-0.972,1.414c-0.362,0.371-0.941,0.337-1.276-0.073c0,0-0.835-0.895-2.009-0.029c0,0-1.422,1.325-2.201,0.42
	c-0.124-0.145-0.172-0.43-0.194-0.609c-0.048-0.398,0.161-0.791,0.502-0.985c0.641-0.365,1.408-0.053,2.087-0.293
	c1.058-0.375,1.871-1.229,2.513-2.121c0.803-1.116,1.92-2.147,3.146-2.78C43.699,16.306,44.057,16.171,44.423,16.154z"/>
<path fill="#C3C3C3" d="M44.728,17.834c0.002,0.009-0.493,0.285-0.539,0.316c-0.196,0.133-0.38,0.288-0.522,0.479
	c-0.364,0.488-0.563,1.067-0.768,1.634c-0.058,0.161-0.116,0.321-0.18,0.479c-0.234,0.582-0.503,1.28-0.892,1.778
	c-0.419,0.536-1.791,2.14-2.512,1.11c-0.193-0.276-0.377-0.521-0.755-0.525c-0.372-0.004-0.708,0.202-0.99,0.425
	c-0.431,0.339-0.792,0.746-0.74,1.354c0.075,0.862,1.033,1.158,1.762,1.198c0.433,0.024,0.874-0.007,1.305-0.048
	c1.574-0.149,2.896-0.964,3.831-2.231c0.241-0.325,0.454-0.676,0.638-1.037c0.46-0.911,0.695-1.968,1.357-2.771
	C45.724,19.994,44.952,18.841,44.728,17.834z"/>
<path fill="#C3C3C3" d="M45.999,20.376c0,0,0.466,0.535,0.804,0.789c-0.024-0.018-0.148,0.463-0.149,0.664
	c-0.003,0.66,0.313,1.152,0.659,1.676c0.29,0.44,0.577,0.858,0.621,1.402c0.038,0.481-0.135,0.983-0.611,1.176
	c-0.454,0.183-0.949,0.118-1.422,0.068c0,0-0.362-0.039-0.177-0.215c0,0,0.93-0.567,0.206-1.76
	C45.93,24.175,44.455,22.267,45.999,20.376z"/>
<path fill="#C3C3C3" d="M44.865,22.963c0.014,0.023-0.081,0.184-0.09,0.204c-0.089,0.189-0.186,0.375-0.291,0.556
	c-0.27,0.461-0.598,0.965-1.022,1.3c-0.284,0.224-0.63,0.354-0.877,0.629c-0.127,0.143-0.181,0.328-0.112,0.514
	c0.231,0.631,1.033,0.355,1.463,0.148c0.654-0.316,1.219-0.822,1.361-1.564c0.046-0.242,0.063-0.496,0.006-0.738
	C45.219,23.658,45.054,23.273,44.865,22.963z"/>
<path fill="#C3C3C3" d="M47.085,21.378c0.004,0.003-0.037,0.23-0.038,0.244c-0.017,0.214-0.008,0.429,0.042,0.639
	c0.147,0.61,0.62,1.014,0.928,1.536c0.312,0.529,0.518,1.199,0.226,1.779c-0.421,0.836,0.703,0.698,1.18,0.586
	c0.045-0.011,0.522-0.148,0.497-0.188c0.493,0.747,1.634,0.195,1.487-0.636c-0.049-0.276-0.245-0.577-0.432-0.781
	c0,0-0.732-0.695-1.153-2.053c0,0-1.273,0.127-1.884-0.929C47.938,21.575,47.428,21.65,47.085,21.378z"/>
<path fill="#C3C3C3" d="M54.045,25.525c0.217,0.657-0.532,0.866-1.035,0.896c-0.142,0.008-0.283,0.01-0.425,0.007
	c-0.256-0.008-0.637-0.042-0.837-0.222c-0.208-0.188,0.002-0.36,0.035-0.572c0.118-0.751-0.585-1.302-0.946-1.863
	c-0.124-0.192-0.233-0.395-0.32-0.606c0,0,1.043,0.435,1.738,0.552C52.255,23.716,53.874,25.006,54.045,25.525z"/>
<path fill="#C3C3C3" d="M53.132,23.931c0,0,1.328,0.956,1.388,1.74c0,0-0.016,0.667,0.85,0.558c0,0,1.182-0.037,1.73-0.418
	c0,0,0.771-0.616-0.608-1.144C56.491,24.667,55.577,24.342,53.132,23.931z"/>
<path fill="#C3C3C3" d="M48.819,5.963c-0.072-0.062-0.146-0.124-0.224-0.183c-0.275-0.212-0.732-0.381-1.082-0.345
	c-0.284,0.029-0.402,0.246-0.44,0.508c-0.047,0.323,0.01,0.668,0.094,0.981c0.177,0.655,0.562,1.218,1.099,1.633
	c0.521,0.403,1.291,0.669,1.951,0.62c0.22-0.016,0.454-0.048,0.65-0.155c0.183-0.099,0.307-0.271,0.476-0.387
	c0.187-0.127,0.415-0.183,0.641-0.166c0.152,0.012,0.313,0.028,0.455-0.045c0.17-0.088,0.193-0.27,0.149-0.439
	c0,0-0.205-0.812-1.222-0.89c-0.309-0.024-0.6-0.062-0.896-0.158c-0.326-0.105-0.642-0.249-0.936-0.423
	C49.269,6.358,49.049,6.157,48.819,5.963z"/>
<path fill="#C3C3C3" d="M48.43,9.31c-0.241-0.057-0.482-0.1-0.73-0.098c-0.254,0.002-0.481,0.102-0.71,0.205
	c-0.764,0.346-1.231,1.113-1.532,1.867c-0.303,0.764-0.455,1.598-0.55,2.411c0,0-0.082,1.117,0.72,0.842
	c0.896-0.307,1.134-1.333,1.573-2.051c0.435-0.71,1.096-1.239,1.843-1.598c0.554-0.266,1.184-0.405,1.795-0.449
	c1.011-0.072,2.091-0.434,2.907-1.036c0.214-0.158,0.552-0.414,0.482-0.732C54.05,7.865,51.962,8.9,51.643,9.088
	c-0.595,0.352-1.233,0.547-1.939,0.501C49.273,9.561,48.854,9.412,48.43,9.31z"/>
<path fill="#C3C3C3" d="M53.499,10.146c0,0-0.847,0.942-1.263,2.455c0,0-2.675-0.378-4.185,1.352
	c-0.507,0.58-0.576,1.545-0.367,2.25c0.206,0.693,0.495,1.207,0.253,1.944c0,0-0.224,0.953,0.305,1.408c0,0,1.061,1.07,0.117,1.51
	c0,0-0.63,0.312-1.247-0.264c0,0-2.272-1.701-1.979-4.326c0.088-0.795,0.313-1.376,1.054-1.774c0.406-0.219,0.666-0.655,0.869-1.053
	c0.632-1.236,1.492-2.114,2.86-2.528c0.636-0.192,1.305-0.224,1.944-0.398c0.541-0.148,1.07-0.357,1.587-0.576"/>
<path fill="#C3C3C3" d="M52.137,12.98c0,0-0.489,2.249-0.293,3.52c0.01,0.064-0.265,0.356-0.3,0.408
	c-0.233,0.342-0.441,0.698-0.611,1.075c-0.428,0.951-0.612,2.035-0.146,3.013c0.145,0.303,0.357,0.563,0.646,0.739
	c0.156,0.094,0.326,0.161,0.5,0.215c0.158,0.048,0.439,0.049,0.573,0.138c0.22,0.145,0.245,0.565,0.153,0.804
	c-0.325,0.847-1.623,0.142-2.029-0.201c-0.237-0.198-0.421-0.434-0.525-0.728c0.013,0.035-0.278,0.08-0.599,0.041
	c-0.199-0.024-1.099-0.254-1.082-0.544c0.01-0.17,0.397-0.202,0.517-0.28c0.529-0.35,0.227-1.168-0.107-1.55
	c-0.186-0.212-0.354-0.477-0.438-0.749c-0.122-0.406,0.084-0.828,0.074-1.239c-0.011-0.413-0.108-0.83-0.242-1.219
	C48.228,16.422,46.816,12.941,52.137,12.98z"/>
<path fill="#C3C3C3" d="M51.979,17.099c0.012,0.037-0.154,0.255-0.172,0.287c-0.14,0.252-0.265,0.514-0.376,0.78
	c-0.276,0.67-0.462,1.458-0.313,2.182c0.067,0.327,0.228,0.705,0.479,0.933c0.283,0.256,0.688,0.198,1.021,0.341
	c0.318,0.137,0.556,0.407,0.636,0.746c0,0,0.091,0.386-0.121,0.73c0,0-0.871,1.004,1.998,0.194c0.416,0.084,0.864,0.097,1.282,0.029
	c0.225-0.037,0.523-0.139,0.622-0.365c0.12-0.274-0.104-0.555-0.354-0.648c-0.226-0.084-0.494-0.199-0.728-0.317
	c-1.043-0.529-1.986-1.403-2.674-2.338C52.709,18.875,52.273,18.017,51.979,17.099z"/>
<path fill="#C3C3C3" d="M55.157,23.816c0,0,2.633,0.331,2.613,1.504c-0.015,0.882,1.608,0.402,2.068,0.333
	c0.291-0.043,0.589-0.071,0.883-0.047c0.342,0.028,0.664,0.205,1.01,0.241c0.235,0.024,0.6,0.062,0.78-0.132
	c0.106-0.115,0.083-0.272,0.028-0.409c-0.192-0.478-0.814-0.841-1.238-1.089c-0.52-0.304-1.088-0.536-1.671-0.688
	c-0.665-0.174-1.462-0.271-2.144-0.141c-0.456,0.087-0.637,0.337-1.115,0.403C55.975,23.846,55.556,23.838,55.157,23.816z"/>
<path fill="#C3C3C3" d="M52.363,6.9c-0.021-0.097-0.529-0.204-0.597-0.222c-0.544-0.147-1.119-0.116-1.641-0.352
	c-0.479-0.218-0.905-0.55-1.297-0.896c0,0-0.514-0.54-1.394-0.422c0,0-1.379,0.337-1.804-0.719c0,0-0.249-0.88,1.496-1.085
	c0,0,1.38-0.176,1.863,0.381c0.195,0.225,0.058,0.359-0.185,0.432c-0.128,0.038-0.262,0.069-0.395,0.077
	c-0.222,0.013-0.708-0.077-0.36,0.284c0,0,0.396,0.41,2.024,0.528C50.076,4.905,51.938,4.861,52.363,6.9z"/>
<path fill="#C3C3C3" d="M52.275,5.594c0.087,0.169,0.206,0.319,0.29,0.49c0.09,0.184,0.154,0.378,0.207,0.575
	c0.108,0.416-0.033,0.901,0.17,1.29c0.158,0.299,0.509,0.258,0.811,0.192c0.845-0.184,1.086-1.086,0.784-1.827
	c-0.263-0.643-0.929-0.889-1.573-0.955C52.964,5.36,52.074,5.205,52.275,5.594z"/>
<path fill="#C3C3C3" d="M54.662,8.004c0,0,1.318-1.356,3.587-0.697c0,0,0.078-0.397,0-1.023c0,0-0.049-0.45-0.304-0.186
	c0.06-0.061-0.022-0.375-0.036-0.44c-0.069-0.335-0.252-0.654-0.487-0.901c-0.155-0.163-0.357-0.321-0.581-0.371
	c-0.143-0.032-0.374,0.044-0.225,0.236c-0.001,0-0.772-0.987-3.323-1.026c0,0-0.685,0.01-0.373,0.313
	c-0.071-0.07-0.395-0.024-0.479-0.019c-0.411,0.027-0.812,0.143-1.184,0.314c-0.158,0.072-0.365,0.185-0.315,0.4
	c0.041,0.176,0.201,0.272,0.372,0.282c0.229,0.014,0.302-0.156,0.484-0.247c0.06-0.03,0.214-0.113,0.281-0.065
	c0.064,0.047,0.02,0.134,0.014,0.196c-0.025,0.323,0.358,0.273,0.563,0.224c0,0,1.008-0.201,1.701,0.437
	C54.357,5.43,55.689,6.525,54.662,8.004z"/>
<path fill="#C3C3C3" d="M50.87,3.058c0,0-1.468,0.14-1.308,1.116c0,0,0.099,0.616,0.946,0.316c0,0-0.434-0.171,0.093-0.429
	c0.263-0.097,0.55-0.225,0.749-0.425c0.128-0.128,0.106-0.316-0.025-0.435C51.197,3.086,51.042,3.043,50.87,3.058z"/>
<path fill="#C3C3C3" d="M61.497,43.372c0,0,0.575,0.748,0.78,1.364c0,0,0.132,0.836,1.275,0.294c0.481-0.229,0.93-0.515,1.314-0.886
	c0.79-0.759,1.276-1.567,2.323-2.02c0,0,2.058-0.557,3.133-3.607c0,0,0.9-2.521,2.796-3.949c0.355-0.233,1.513-0.99,1.067-1.499
	c-0.228-0.259-0.622-0.223-0.839-0.489c-0.25-0.31,0.029-0.719,0.242-0.965c0,0,0.898-0.842,1.975-1.457
	c0,0,0.865-0.514-0.078-1.105c0,0-0.548-0.508-0.782,0.294c0,0-0.387,0.973-1.525,1.955c0,0-1.056,1.094-1.818,3.167
	c0,0-0.353,1.369-1.857,2.934c0,0-1.74,1.868-4.087,2.47C65.416,39.873,63.955,42.322,61.497,43.372z"/>
<path fill="#C3C3C3" d="M66.979,33.434c0,0,0.194,3.75-1.114,5.671c0,0,3.402-0.646,5.221-5.222c0.414-1.042,0.923-2.021,1.685-2.86
	c0.375-0.413,0.806-0.764,1.11-1.236c0.272-0.422,0.48-0.88,0.61-1.365c0.087-0.325,0.086-0.652,0.148-0.977
	c0,0,0.089-0.455-0.337-0.484c0,0-0.396,0.073-0.309,0.646c0,0,0.184,1.653-0.908,1.906c0,0-2.743,0.777-2.288-2.552
	c-0.006,0.043-0.12,0.125-0.147,0.155c-0.122,0.136-0.229,0.286-0.334,0.436c-0.267,0.377-0.53,0.887-0.517,1.361
	c0.01,0.322,0.097,0.673-0.06,0.98c-0.077,0.153-0.245,0.315-0.359,0.458c-0.6,0.747-1.187,1.502-1.771,2.261
	C67.399,32.886,67.189,33.16,66.979,33.434z"/>
<path fill="#C3C3C3" d="M73.585,27.666c0.015,0.267,0.037,0.511-0.056,0.773c-0.094,0.26-0.289,0.464-0.537,0.579
	c-0.205,0.094-0.421,0.128-0.645,0.133c0,0-1.154,0.137-1.115-1.594c0,0-0.106-2.493,2.992-3.226c0,0,2.142-0.499,2.737,1.409
	c-0.011-0.036-0.504,0.066-0.536,0.073c-0.46,0.105-0.954,0.271-1.263,0.649c-0.084,0.102-0.129,0.259-0.237,0.337
	c-0.164,0.116-0.405-0.136-0.581-0.147c-0.194-0.014-0.415,0.064-0.538,0.222c-0.149,0.194-0.236,0.477-0.226,0.72
	C73.582,27.619,73.583,27.643,73.585,27.666z"/>
<g>
	<path fill="#C3C3C3" d="M74.698,31.574c-0.203,0.164-0.521,0.197-0.732,0.315c-0.125,0.074-0.205,0.184-0.146,0.33
		c0.072,0.19,0.278,0.19,0.446,0.228c0.258,0.058,0.302,0.425,0.609,0.359c0.389-0.089,0.095-0.572,0.059-0.799
		c-0.015-0.051-0.015-0.095-0.015-0.146C74.919,31.861,75.08,31.266,74.698,31.574z"/>
</g>
<path fill="#C3C3C3" d="M77.368,25.766c0,0-0.19-1.283-1.54-1.665c0,0,1.114-0.652,2.163-0.095c0.217,0.115,0.514,0.3,0.213,0.564
	C78.204,24.572,77.534,25.265,77.368,25.766z"/>
<path fill="#C3C3C3" d="M77.211,26.307c-0.023-0.013-0.048-0.026-0.071-0.037c-0.174-0.078-0.411-0.082-0.597-0.064
	c-0.385,0.036-0.73,0.219-1.009,0.479c-0.229,0.214-0.423,0.481-0.549,0.767c0,0-0.39,0.873,0.776,1.328c0,0,0.353,0.16,0.271-0.199
	c-0.032-0.146-0.067-0.286-0.06-0.438c0.015-0.297,0.157-0.592,0.415-0.753c0.26-0.161,0.62-0.237,0.923-0.2
	c0.313,0.038,0.637-0.007,0.941-0.08c0.219-0.052,0.457-0.043,0.655,0.072c0.202,0.117,0.341-0.012,0.353-0.221
	c0.005-0.104-0.009-0.198,0.008-0.302c0.079-0.491,0.52-0.815,0.991-0.894c0.188-0.031,0.414-0.003,0.52,0.175
	c0.028,0.049,0.094,0.204,0.164,0.176c0.082-0.031,0.073-0.286,0.076-0.351c0.011-0.204-0.076-0.491-0.167-0.672
	c-0.078-0.159-0.201-0.281-0.354-0.369c-0.299-0.17-0.655-0.223-0.995-0.185c-0.193,0.021-0.393,0.063-0.578,0.122
	c-0.428,0.135-0.76,0.417-1,0.79c-0.126,0.195-0.213,0.415-0.282,0.634c-0.029,0.09-0.068,0.207-0.152,0.26
	C77.396,26.407,77.3,26.356,77.211,26.307z"/>
<g>
	<path fill="#C3C3C3" d="M77.191,27.569c-0.075,0.001-0.15,0.019-0.227,0.037c-0.113,0.028-0.227,0.075-0.319,0.147
		c-0.053,0.04-0.1,0.091-0.136,0.147c-0.131,0.205-0.051,0.525,0,0.76c0.044,0.227,0.015,0.377-0.029,0.611
		c-0.037,0.176-0.161,0.425,0.081,0.477c0.44,0.088,0.802-0.49,0.932-0.813c0.088-0.22,0.103-0.484,0.124-0.712
		c0.021-0.253,0.006-0.549-0.283-0.637C77.287,27.571,77.239,27.567,77.191,27.569z"/>
</g>
<g>
	<path fill="#C3C3C3" d="M79.736,27.006c0.181,0.296-0.007,0.814-0.189,1.064c-0.053,0.071-0.206,0.204-0.148,0.303
		c0.062,0.108,0.288,0.093,0.388,0.083c0.192-0.018,0.381-0.085,0.544-0.186c0.344-0.212,0.52-0.562,0.594-0.948
		c0.059-0.304,0.105-0.889-0.269-1.022c-0.167-0.061-0.374-0.007-0.531,0.062C79.886,26.468,79.564,26.716,79.736,27.006"/>
</g>
<g>
	<path fill="#C3C3C3" d="M77.83,30.973c0.396-0.029,0.901-0.242,1.188-0.418c0.293-0.19,0.726-0.44,0.844-0.792
		c0.109-0.33-0.029-0.513-0.367-0.543c-0.381-0.036-0.879-0.073-1.085,0.323c-0.103,0.198-0.14,0.425-0.234,0.623
		c-0.073,0.169-0.191,0.279-0.338,0.389c-0.08,0.066-0.33,0.154-0.322,0.264C77.521,30.944,77.734,30.98,77.83,30.973"/>
</g>
<path fill="#C3C3C3" d="M79.165,28.593c0,0,0.717,0.664,1.854-0.625c0,0,0.379-0.412,0.264,0.204
	c-0.074,0.403-0.363,1.027-0.85,1.035c-0.178,0.002-0.312-0.104-0.466-0.172c-0.23-0.101-0.484-0.15-0.735-0.146
	c-0.115,0.002-0.232,0.017-0.346,0.039c-0.16,0.032-0.327,0.117-0.485,0.034c-0.125-0.066-0.188-0.195-0.193-0.333
	c-0.008-0.21,0.055-0.422,0.123-0.619c0.086-0.249,0.376-0.512,0.65-0.465c0.108,0.018,0.276,0.12,0.315,0.23
	c0.071,0.2-0.121,0.314-0.198,0.468C79.038,28.359,79.063,28.508,79.165,28.593z"/>
<path fill="#C3C3C3" d="M61.172,9.324c0,0-2.796-2.584-5.787-1.135c-0.214,0.103-0.404,0.237-0.56,0.418
	c-0.146,0.172-0.264,0.386-0.316,0.606c-0.068,0.284,0.005,0.597-0.081,0.876c-0.19,0.62-0.854,0.883-1.229,1.361
	c-0.388,0.495-0.646,0.992-0.605,1.641c0.028,0.467,0.299,0.912,0.602,1.258c0,0,0.841,1.173,2.581,0.567
	c0.861-0.3,1.66-0.789,2.619-0.622c0.506,0.088,0.775-0.082,0.961-0.56c0.178-0.458,0.271-0.956,0.351-1.438
	c0,0-0.42,0.176-1.422-0.352c-0.837-0.44-1.769,0.29-2.615-0.222c-1.11-0.671-1.037-2.548,0.144-3.074
	c0.424-0.188,0.971-0.257,1.429-0.281c0.001,0,1.937-0.1,3.814,1.289C61.056,9.656,61.681,10.009,61.172,9.324z"/>
<path fill="#C3C3C3" d="M59.892,9.666c0,0-3.158-1.31-3.999,0.176c0,0-0.597,1.154,0.616,1.301c0,0,0.685,0.098,1.525-0.646
	C58.034,10.497,58.895,9.696,59.892,9.666z"/>
<g>
	<path fill="#C3C3C3" d="M58.442,11.442c0.267-0.023,0.361-0.01,0.521,0.075c0.171,0.096,0.277,0.234,0.469,0.288
		c0.192,0.064,0.469,0.085,0.564-0.127c0.117-0.224-0.074-0.49-0.191-0.661c-0.287-0.394-0.787-0.447-1.235-0.309
		c-0.172,0.054-0.38,0.187-0.455,0.347C57.997,11.304,58.209,11.458,58.442,11.442"/>
</g>
<g>
	<path fill="#C3C3C3" d="M60.106,13.924c-0.544,0.354,0.103-1.144,0.338-1.745c0.264-0.646,0.014-1.496-0.646-1.819
		c0,0,3.798,0.543,5.25,5.075c-0.057-0.178-0.397-0.355-0.541-0.437c-0.517-0.292-1.057-0.364-1.638-0.424
		c-0.485-0.05-0.799-0.288-1.201-0.528C61.227,13.781,60.563,13.626,60.106,13.924z"/>
</g>
<path fill="#C3C3C3" d="M52.451,14.262c0,0-0.66,2.214,0.836,4.238c0,0,0.338,0.514,1.129,0.308c0,0,1.335-0.279,1.144,1.334
	c0,0-0.161,0.627,0.221,0.211c0,0,0.836-0.812-0.205-1.825c0,0-1.246-1.421-0.454-2.881C55.121,15.648,53.404,15.86,52.451,14.262z"
	/>
<path fill="#C3C3C3" d="M55.282,16.505c0.209-1.003,1.451-1.525,1.451-1.525c1.348-0.718,2.2,0.851,2.2,0.851
	c1.584,2.523,2.918,2.479,2.918,2.479c0.352-0.043,0.323,0.44,0.323,0.44c-0.059,0.249-0.249,0.234-0.249,0.234
	c-1.893-0.059-3.505-2.845-3.505-2.845c-1.204-1.76-2.113,0-2.113,0c-0.376,0.884-0.138,1.881,0.634,2.467
	c0.269,0.203,0.58,0.323,0.877,0.476c0.377,0.195,0.753,0.405,1.101,0.651c0.274,0.195,0.731,0.648,0.411,0.985
	c-0.329,0.347-0.904,0.209-1.264,0.008c-0.412-0.23-0.761-0.554-1.079-0.897c-0.289-0.31-0.511-0.669-0.782-0.992
	C56.205,18.837,55.077,17.488,55.282,16.505z"/>
<g>
	<path fill="#C3C3C3" d="M57.862,22.166c0.186-0.112,0.382-0.279,0.521-0.44c0.177-0.183,0.052-0.367-0.139-0.469
		c-0.169-0.088-0.418-0.206-0.513,0.021c-0.089,0.213-0.045,0.521-0.045,0.756C57.687,22.034,57.661,22.289,57.862,22.166z"/>
</g>
<g>
	<path fill="#C3C3C3" d="M56.858,21.663c0.197-0.085,0.416-0.223,0.576-0.364c0.199-0.157,0.102-0.355-0.073-0.484
		c-0.155-0.11-0.386-0.261-0.512-0.049c-0.116,0.199-0.115,0.51-0.147,0.742C56.702,21.509,56.642,21.757,56.858,21.663z"/>
</g>
<g>
	<path fill="#C3C3C3" d="M56.088,20.862c0.193-0.055,0.411-0.156,0.577-0.267c0.204-0.121,0.141-0.319-0.002-0.46
		c-0.127-0.123-0.318-0.293-0.463-0.111c-0.133,0.17-0.174,0.461-0.234,0.674C55.966,20.698,55.876,20.922,56.088,20.862z"/>
</g>
<g>
	<path fill="#C3C3C3" d="M57.417,18.29c0.176-0.146,0.235-0.375,0.282-0.593c0.033-0.128,0.036-0.256,0.019-0.383
		c-0.014-0.087-0.079-0.21-0.034-0.292c0.178-0.352,0.431,0.369,0.455,0.466c0.119,0.415,0.143,0.844,0.164,1.264
		c0,0,0.014,0.439-0.872-0.209C57.431,18.544,57.267,18.416,57.417,18.29z"/>
</g>
<path fill="#C3C3C3" d="M56.44,17.263c0,0,0.048,0.586,0.54,0.949c0,0,0.389-0.039,0.467-0.675c0,0,0.102-0.337-0.467-0.438
	C56.98,17.099,56.431,16.93,56.44,17.263z"/>
<path fill="#C3C3C3" d="M58.826,19.179c0,0,1.202,0.648,1.065,1.751c0,0-0.156,1.162,1.408,1.416c0,0,1.085,0.166,1.71-1.133
	c0.04-0.081,0.104-0.217,0.057-0.304c-0.131-0.237-0.606,0.133-0.744,0.188c-0.164,0.064-0.398,0.167-0.58,0.159
	c-0.208-0.009-0.445-0.162-0.58-0.311c-0.218-0.238-0.277-0.531-0.402-0.814c-0.098-0.223-0.236-0.427-0.381-0.622
	c-0.064-0.087-0.132-0.171-0.201-0.254c-0.031-0.037-0.206-0.287-0.247-0.281C59.931,18.974,59.505,19.262,58.826,19.179z"/>
<path fill="#C3C3C3" d="M59.836,18.603c-0.122,0.155-0.375,0.258-0.479,0.286c-0.192,0.05-0.433,0.063-0.604-0.072
	c-0.162-0.127-0.119-0.218,0.068-0.242c0,0,0.349,0.037,0.499-0.368c0.036-0.096,0.075-0.199,0.174-0.197
	c0.1,0.002,0.396,0.265,0.411,0.388C59.913,18.473,59.885,18.542,59.836,18.603z"/>
<path fill="#C3C3C3" d="M65.054,15.976c-0.052-0.187-0.31-0.416-0.396-0.48c-0.266-0.195-0.589-0.32-0.901-0.419
	c-0.288-0.091-0.59-0.126-0.893-0.098c0,0-1.568,0.293,0.733,1.73c0,0,0.235,0.177,0.44,0c0,0,0.19-0.219-0.146-0.396
	c0,0-0.865-0.396-0.895-0.748c-0.023-0.273,0.708-0.002,0.803,0.034c0.305,0.118,0.55,0.263,0.79,0.476
	c0.081,0.072,0.276,0.16,0.384,0.101C65.06,16.131,65.076,16.058,65.054,15.976z"/>
<path fill="#C3C3C3" d="M59.271,15.416c0.054,0.378,0.32,0.795,0.487,1.049c0.274,0.417,0.596,0.782,0.996,1.053
	c0.264,0.179,0.552,0.312,0.853,0.396c0.489,0.136,0.488-0.451,0.43-0.802c-0.092-0.567-0.324-1.078-0.621-1.547
	c-0.167-0.265-0.349-0.521-0.534-0.77c-0.325-0.438-0.706-0.521-1.145-0.227c-0.159,0.102-0.336,0.27-0.421,0.451
	C59.261,15.138,59.252,15.275,59.271,15.416z"/>
<path fill="#C3C3C3" d="M60.823,14.137c0,0,1.454,1.511,1.601,3.497c0,0,0.042,0.56,0.81,0c0,0,0.693-0.535-0.15-0.952
	c-0.489-0.242-0.945-0.67-1.019-1.242c-0.044-0.344-0.051-0.666-0.291-0.939C61.535,14.231,61.172,14.137,60.823,14.137z"/>
</svg>
